<?xml version="1.0" encoding="UTF-8"?><svg id="uuid-a1530d54-a014-4841-bed1-7d632bfe2cc8" xmlns="http://www.w3.org/2000/svg" width="4.3333in" height="1.1111in" xmlns:xlink="http://www.w3.org/1999/xlink" viewBox="0 0 312 80"><defs><style>.uuid-aee66f09-2476-4d92-9e8f-9e8106123283{fill:#003458;}.uuid-aee66f09-2476-4d92-9e8f-9e8106123283,.uuid-11d8bf16-c50c-4d00-9c46-0137d17fb1a5,.uuid-218f8457-34b6-44f6-b889-3164b6890931,.uuid-2bc17a83-60c5-4366-b926-bf54521715fe,.uuid-3edf0884-5dda-459e-9ada-273755ebf5e2,.uuid-faf8d191-30f6-4994-9703-9dd2cdd397c5,.uuid-fff8f956-1be0-4bf9-8877-a9620e425232,.uuid-e0903cad-6f87-4cf7-836e-1602ad8c05b8,.uuid-bbc9c412-1e43-4ba7-9fe6-7f7635b82aa3,.uuid-414a4b20-cf34-4a55-a780-04696c4f9f4f,.uuid-6f03122a-e191-4b34-bcad-7457a2f32f71,.uuid-6d3f8ac0-ed88-456c-9b75-e2d53e08ca05,.uuid-132c6bd3-72d4-4b0c-acbc-0d788eef2cf7{stroke-width:0px;}.uuid-11d8bf16-c50c-4d00-9c46-0137d17fb1a5{fill:#4e80aa;}.uuid-218f8457-34b6-44f6-b889-3164b6890931{fill:#0b5886;}.uuid-2bc17a83-60c5-4366-b926-bf54521715fe{fill:#54a1d8;}.uuid-3edf0884-5dda-459e-9ada-273755ebf5e2,.uuid-6d3f8ac0-ed88-456c-9b75-e2d53e08ca05{fill:#095987;}.uuid-faf8d191-30f6-4994-9703-9dd2cdd397c5{fill:url(#uuid-b6ed6700-52c4-479b-985a-fa898f99a911);}.uuid-faf8d191-30f6-4994-9703-9dd2cdd397c5,.uuid-e0903cad-6f87-4cf7-836e-1602ad8c05b8,.uuid-414a4b20-cf34-4a55-a780-04696c4f9f4f,.uuid-132c6bd3-72d4-4b0c-acbc-0d788eef2cf7{isolation:isolate;}.uuid-faf8d191-30f6-4994-9703-9dd2cdd397c5,.uuid-414a4b20-cf34-4a55-a780-04696c4f9f4f,.uuid-132c6bd3-72d4-4b0c-acbc-0d788eef2cf7{opacity:.68;}.uuid-fff8f956-1be0-4bf9-8877-a9620e425232{fill:#204a70;}.uuid-e0903cad-6f87-4cf7-836e-1602ad8c05b8{fill:url(#uuid-ea4ef4e7-e905-4e92-acc2-8ed24b01aebe);opacity:.71;}.uuid-bbc9c412-1e43-4ba7-9fe6-7f7635b82aa3{fill:#2387c8;}.uuid-414a4b20-cf34-4a55-a780-04696c4f9f4f{fill:url(#uuid-11adf647-546c-41da-bb19-cf02420ed319);}.uuid-6f03122a-e191-4b34-bcad-7457a2f32f71{fill:#366c9e;}.uuid-6d3f8ac0-ed88-456c-9b75-e2d53e08ca05{fill-rule:evenodd;}.uuid-132c6bd3-72d4-4b0c-acbc-0d788eef2cf7{fill:url(#uuid-3d9fbc80-c1bb-4266-b755-d87db93e8fc5);}</style><linearGradient id="uuid-11adf647-546c-41da-bb19-cf02420ed319" x1="31.2309" y1="63.2095" x2="15.1509" y2="30.4895" gradientTransform="translate(0 82) scale(1 -1)" gradientUnits="userSpaceOnUse"><stop offset="0" stop-color="#fff"/><stop offset=".5" stop-color="#fff" stop-opacity="0"/></linearGradient><linearGradient id="uuid-b6ed6700-52c4-479b-985a-fa898f99a911" x1="31.2309" y1="63.2095" x2="15.1509" y2="30.4895" gradientTransform="translate(0 82) scale(1 -1)" gradientUnits="userSpaceOnUse"><stop offset="0" stop-color="#fff"/><stop offset=".5" stop-color="#fff" stop-opacity="0"/></linearGradient><linearGradient id="uuid-ea4ef4e7-e905-4e92-acc2-8ed24b01aebe" x1="27.4001" y1="63.67" x2="43.4801" y2="29.84" gradientTransform="translate(0 82) scale(1 -1)" gradientUnits="userSpaceOnUse"><stop offset="0" stop-color="#fff"/><stop offset=".07" stop-color="#fff" stop-opacity=".98"/><stop offset=".16" stop-color="#fff" stop-opacity=".92"/><stop offset=".25" stop-color="#fff" stop-opacity=".81"/><stop offset=".36" stop-color="#fff" stop-opacity=".67"/><stop offset=".47" stop-color="#fff" stop-opacity=".49"/><stop offset=".58" stop-color="#fff" stop-opacity=".26"/><stop offset=".7" stop-color="#fff" stop-opacity="0"/><stop offset=".7" stop-color="#fff" stop-opacity="0"/></linearGradient><linearGradient id="uuid-3d9fbc80-c1bb-4266-b755-d87db93e8fc5" x1="27.4001" y1="63.67" x2="43.4801" y2="29.84" gradientTransform="translate(0 82) scale(1 -1)" gradientUnits="userSpaceOnUse"><stop offset="0" stop-color="#fff"/><stop offset=".5" stop-color="#fff" stop-opacity="0"/></linearGradient></defs><g id="uuid-2a28e7d1-2cbe-4047-8849-c2ee3ff05e4f"><polygon class="uuid-aee66f09-2476-4d92-9e8f-9e8106123283" points="29.16 17.13 .7 42.43 29.16 61.49 29.16 17.13"/><polygon class="uuid-aee66f09-2476-4d92-9e8f-9e8106123283" points="29.16 17.13 57.61 42.43 29.16 61.49 29.16 17.13"/><polygon class="uuid-414a4b20-cf34-4a55-a780-04696c4f9f4f" points="29.16 17.13 .7 42.43 29.16 61.49 29.16 17.13"/><path class="uuid-6d3f8ac0-ed88-456c-9b75-e2d53e08ca05" d="M177.76,40.77c0,5.1-1.85,10.15-7.65,10.15s-7.55-4.92-7.55-10.15v-15.91h-6.07v15.91c0,8.08,3.69,15.51,13.67,15.51,9.62,0,13.61-7,13.61-15.51v-15.91h-6l-.01,15.91Z"/><path class="uuid-6d3f8ac0-ed88-456c-9b75-e2d53e08ca05" d="M145.19,40.55c0-7.86-5.89-15.9-14.72-15.9-8.57,0-14.89,7.51-14.89,15.81,0,8,5.93,15.77,14.76,15.82,2.0154-.0077,4.0061-.444,5.84-1.28l-3.85-4.33c-.6261.1467-1.267.2205-1.91.22-5.49,0-8.74-5.05-8.74-10.46,0-5.14,3.12-10.46,8.7-10.46,5.36,0,8.7,5.06,8.7,10.46.0049,2.1859-.5567,4.3358-1.63,6.24l-1.93-2.2h-5.75l3.28,3.71h0l7,7.86h5.76l-4.44-5c2.4677-2.9384,3.8203-6.6528,3.82-10.49Z"/><polygon class="uuid-6d3f8ac0-ed88-456c-9b75-e2d53e08ca05" points="89.9 42.62 103.04 42.62 103.04 37.69 89.9 37.69 89.9 30.18 105.1 30.18 105.1 24.86 83.84 24.86 83.84 56.06 105.5 56.06 105.5 50.74 89.9 50.74 89.9 42.62"/><path class="uuid-6d3f8ac0-ed88-456c-9b75-e2d53e08ca05" d="M258.42,24.86l-12.3,31.2h6.42l2.85-7.78h10.94l2.85,7.78h6.42l-12.26-31.2h-4.92ZM260.88,31.41l4,11.55h-8.08l4.08-11.55Z"/><path class="uuid-6d3f8ac0-ed88-456c-9b75-e2d53e08ca05" d="M304,44.33c3.5184-1.6435,5.726-5.2181,5.62-9.1,0-5.09-4.17-10.37-9.93-10.37h-13.75v31.2h6.06v-10.46h6l6.54,10.46h6.86l-7.4-11.73ZM299.56,40.33h-7.56v-10.15h7.34c2.15,0,4.22,2.15,4.22,5s-1.72,5.11-3.96,5.11l-.04.04Z"/><polygon class="uuid-6d3f8ac0-ed88-456c-9b75-e2d53e08ca05" points="222.47 24.86 216.41 24.86 216.41 56.06 238.37 56.06 238.37 50.74 222.47 50.74 222.47 24.86"/><rect class="uuid-3edf0884-5dda-459e-9ada-273755ebf5e2" x="196.84" y="24.86" width="6.06" height="31.19"/><polygon class="uuid-fff8f956-1be0-4bf9-8877-a9620e425232" points="8.02 35.92 .7 42.43 29.16 61.49 29.16 47.96 8.02 35.92"/><polygon class="uuid-6f03122a-e191-4b34-bcad-7457a2f32f71" points="29.16 34.15 16.69 28.2 8.02 35.92 29.16 47.96 29.16 34.15"/><polygon class="uuid-11d8bf16-c50c-4d00-9c46-0137d17fb1a5" points="29.16 17.13 16.69 28.2 29.16 34.15 29.16 17.13"/><polygon class="uuid-218f8457-34b6-44f6-b889-3164b6890931" points="50.29 35.92 57.61 42.43 29.16 61.49 29.16 47.96 50.29 35.92"/><polygon class="uuid-bbc9c412-1e43-4ba7-9fe6-7f7635b82aa3" points="29.16 34.15 41.62 28.2 50.29 35.92 29.16 47.96 29.16 34.15"/><polygon class="uuid-2bc17a83-60c5-4366-b926-bf54521715fe" points="29.16 17.13 41.62 28.2 29.16 34.15 29.16 17.13"/><polygon class="uuid-faf8d191-30f6-4994-9703-9dd2cdd397c5" points="29.16 17.13 .7 42.43 29.16 61.49 29.16 17.13"/><polygon class="uuid-e0903cad-6f87-4cf7-836e-1602ad8c05b8" points="29.16 17.13 57.61 42.43 29.16 61.49 29.16 17.13"/><polygon class="uuid-132c6bd3-72d4-4b0c-acbc-0d788eef2cf7" points="29.16 17.13 57.61 42.43 29.16 61.49 29.16 17.13"/></g></svg>